<svg id="_x33_0" enable-background="new 0 0 64 64" height="512" viewBox="0 0 64 64" width="512" xmlns="http://www.w3.org/2000/svg"><g><path d="m52.712 47.175c1.444-1.318 2.288-3.198 2.288-5.175 0-3.859-3.141-7-7-7-2.185 0-4.244 1.039-5.558 2.752-.862-.309-1.442-1.118-1.442-2.037v-3.46c0-1.212.439-2.381 1.237-3.293l1.919-2.193c2.479-2.833 3.844-6.466 3.844-10.231 0-8.567-6.971-15.538-15.538-15.538h-2.813c-3.61 0-6.945 1.488-9.34 3.964-1.137-2.377-3.553-3.964-6.309-3.964-3.859 0-7 3.141-7 7s3.141 7 7 7c.56 0 1.108-.083 1.643-.213-.587 1.497-1.324 2.932-2.217 4.271-.279.419-.426.905-.426 1.407 0 1.215.858 2.232 2 2.479v5.056c0 2.757 2.243 5 5 5 .552 0 1 .448 1 1v2.559c0 .431-.274.813-.684.949l-.803.268c-6.344 2.113-10.874 7.78-11.54 14.436l-1.077 10.788h48.209l-1.078-10.789c-.177-1.765-.633-3.457-1.315-5.036zm-4.712-10.175c2.757 0 5 2.243 5 5 0 1.219-.45 2.386-1.238 3.289-1.708-2.902-4.266-5.263-7.371-6.737.934-.973 2.235-1.552 3.609-1.552zm-16-26.302-1.519-1.266c-.831-.692-1.525-1.52-2.075-2.432h7.194c-.55.908-1.243 1.734-2.081 2.433zm1.519 3.869c.164.136.311.287.465.433h-3.967c.153-.146.301-.296.465-.433l1.518-1.265zm-1.519 16.131-1.519-1.266c-.164-.136-.311-.287-.465-.433h3.967c-.153.146-.301.296-.465.433zm1.519 3.869c.164.136.311.287.465.433h-3.967c.153-.146.301-.296.465-.433l1.518-1.265zm-1.519 16.131-1.519-1.266c-.164-.136-.311-.287-.465-.433h3.967c-.153.146-.301.296-.465.433zm1.519 3.869c.839.699 1.54 1.523 2.09 2.433h-7.218c.55-.91 1.251-1.734 2.089-2.433l1.52-1.265zm-6.038 4.433h9.038c.21.646.356 1.315.426 2h-9.89c.071-.685.216-1.354.426-2zm8.128-12h-7.218c-.38-.629-.682-1.301-.91-2h9.038c-.228.699-.53 1.371-.91 2zm1.391-5c0 .336-.021.669-.055 1h-9.89c-.034-.331-.055-.664-.055-1s.021-.669.055-1h9.89c.034.331.055.664.055 1zm-9.519-3c.228-.699.53-1.371.91-2h7.218c.38.629.682 1.301.91 2zm8.128-12h-7.218c-.38-.629-.682-1.301-.91-2h9.038c-.228.699-.53 1.371-.91 2zm1.391-5c0 .336-.021.669-.055 1h-9.89c-.034-.331-.055-.664-.055-1s.021-.669.055-1h9.89c.034.331.055.664.055 1zm-9.519-3c.228-.699.53-1.371.91-2h7.218c.38.629.682 1.301.91 2zm4.981-16c1.532 0 3 .268 4.374.739-.078.43-.184.85-.318 1.261h-9.026c-.181-.552-.316-1.12-.396-1.7.824-.196 1.679-.3 2.553-.3zm-23.462 5c0-2.757 2.243-5 5-5 2.32 0 4.288 1.581 4.835 3.797-.628.945-1.147 1.977-1.519 3.092l-.807 2.422c-.76.443-1.617.689-2.509.689-2.757 0-5-2.243-5-5zm.964 44.41c.588-5.873 4.585-10.872 10.183-12.738l.803-.268c1.226-.409 2.05-1.552 2.05-2.845v-2.559c0-1.654-1.346-3-3-3s-3-1.346-3-3v-7h-1.465c-.295 0-.535-.24-.535-.535 0-.106.031-.209.09-.297 1.205-1.808 2.165-3.77 2.852-5.831l1.271-3.815c1-2.999 3.2-5.336 5.959-6.564.466 2.723 1.888 5.228 4.029 7.013l1.236 1.029-1.237 1.03c-2.669 2.226-4.2 5.494-4.2 8.97s1.531 6.744 4.201 8.97l1.236 1.03-1.237 1.03c-2.669 2.226-4.2 5.494-4.2 8.97s1.531 6.744 4.201 8.97l1.236 1.03-1.237 1.03c-2.411 2.01-3.881 4.874-4.145 7.97h-6.055v-12h-2v12h-7.896zm35.036 8.59v-12h-2v12h-4.055c-.264-3.096-1.735-5.959-4.146-7.97l-1.236-1.03 1.237-1.03c2.669-2.226 4.2-5.494 4.2-8.97s-1.531-6.744-4.201-8.97l-1.236-1.03 1.237-1.03c2.669-2.226 4.2-5.494 4.2-8.97s-1.531-6.744-4.201-8.97l-1.237-1.03 1.238-1.031c2.004-1.67 3.357-3.918 3.913-6.428 4.324 2.263 7.287 6.787 7.287 11.997 0 3.28-1.189 6.445-3.35 8.914l-1.919 2.193c-1.116 1.277-1.731 2.914-1.731 4.61v3.46c0 1.772 1.114 3.343 2.78 3.932l.073.025c5.598 1.866 9.595 6.865 10.183 12.738l.86 8.59z"/><path d="m15 34c0-3.859-3.141-7-7-7s-7 3.141-7 7 3.141 7 7 7 7-3.141 7-7zm-12 0c0-2.757 2.243-5 5-5s5 2.243 5 5-2.243 5-5 5-5-2.243-5-5z"/><path d="m8 35c-.552 0-1-.448-1-1h-2c0 1.654 1.346 3 3 3z"/><path d="m13 8h-2c0 1.654 1.346 3 3 3v-2c-.552 0-1-.448-1-1z"/><path d="m56 17c3.859 0 7-3.141 7-7s-3.141-7-7-7-7 3.141-7 7 3.141 7 7 7zm0-12c2.757 0 5 2.243 5 5s-2.243 5-5 5-5-2.243-5-5 2.243-5 5-5z"/><path d="m56 13v-2c-.552 0-1-.448-1-1h-2c0 1.654 1.346 3 3 3z"/><path d="m7 23c1.654 0 3-1.346 3-3s-1.346-3-3-3-3 1.346-3 3 1.346 3 3 3zm0-4c.552 0 1 .448 1 1s-.448 1-1 1-1-.448-1-1 .448-1 1-1z"/><path d="m46 30c0 1.654 1.346 3 3 3s3-1.346 3-3-1.346-3-3-3-3 1.346-3 3zm3-1c.552 0 1 .448 1 1s-.448 1-1 1-1-.448-1-1 .448-1 1-1z"/><path d="m59 19c-2.206 0-4 1.794-4 4s1.794 4 4 4 4-1.794 4-4-1.794-4-4-4zm0 6c-1.103 0-2-.897-2-2s.897-2 2-2 2 .897 2 2-.897 2-2 2z"/></g></svg>