<svg id="Layer_1" enable-background="new 0 0 512 512" height="512" viewBox="0 0 512 512" width="512" xmlns="http://www.w3.org/2000/svg"><g><path d="m72 453.362c-3.97-1.179-8.146 1.079-9.328 5.048-3.97 13.334-5.983 28.84-5.983 46.089 0 4.142 3.357 7.499 7.5 7.499s7.5-3.357 7.5-7.499c0-15.799 1.804-29.865 5.36-41.811 1.181-3.968-1.078-8.144-5.049-9.326z"/><path d="m439.811 435.975c-2.069-3.588-6.656-4.819-10.243-2.751-3.589 2.068-4.82 6.654-2.751 10.242 9.081 15.747 13.495 35.712 13.495 61.033 0 4.142 3.357 7.499 7.5 7.499s7.5-3.357 7.5-7.499c0-28.022-5.071-50.436-15.501-68.524z"/><path d="m416.454 409.237c-6.655-5.19-14.354-9.832-23.392-14.098 11.334-32.888.084-68.228-3.839-78.767-5.528-17.587-24.406-23.681-40.859-25.53 11.231-18.987 18.549-41.208 21.195-64.77 5.905-1.279 9.634-2.356 10.307-2.555 2.896-.855 4.996-3.365 5.328-6.366 5.244-47.338.214-92.311-.003-94.203-.367-3.204-2.742-5.814-5.897-6.482-.374-.079-3.648-.767-9.289-1.778-.145-4.763-.476-11.576-1.226-18.243 2.164.481 4.344.973 6.543 1.475 2.288.524 4.69-.056 6.489-1.564 1.8-1.509 2.788-3.772 2.673-6.116-1.495-30.259-18.771-55.82-48.646-71.976-46.26-25.017-114.667-24.25-159.122 1.784-3.574 2.093-4.775 6.686-2.682 10.26 2.094 3.576 6.691 4.772 10.262 2.681 39.641-23.214 103.071-23.885 144.407-1.533 15.794 8.542 34.55 23.833 39.591 49.523-104.045-22.781-167.589-21.22-188.956 4.662-7.087 8.585-7.982 17.777-7.303 24.425-7.985 1.039-15.001 2.094-20.816 3.039-6.284-23.444-2.994-43.682 9.811-60.232 2.535-3.275 1.934-7.985-1.343-10.519-3.273-2.533-7.986-1.933-10.521 1.343-15.383 19.878-19.732 44.64-12.759 72.026-2.12.411-3.389.676-3.701.743-3.155.668-5.53 3.279-5.897 6.482-.217 1.891-5.247 46.865-.003 94.203.332 3.001 2.433 5.511 5.328 6.366.672.199 4.402 1.276 10.306 2.555 2.646 23.561 9.963 45.781 21.195 64.77-16.511 1.856-35.463 7.986-40.917 25.716-3.938 10.733-14.897 45.853-3.623 78.556-16.385 7.714-28.595 16.775-38.073 28.188-2.646 3.186-2.207 7.914.979 10.56 1.4 1.163 3.099 1.729 4.787 1.729 2.153 0 4.291-.923 5.774-2.709 9.101-10.958 21.461-19.496 38.886-26.858.072-.028.144-.058.216-.088 3.748-1.599 5.532-5.901 4.019-9.684-.05-.124-.103-.246-.158-.366-6.069-13.397-7.028-28.088-5.953-40.997 6.294 11.401 16.025 23.354 28.787 35.108 10.873 10.014 23.291 19.214 36.599 27.239-3.127 14.022-9.275 51.563 3.512 89.65 1.053 3.135 3.975 5.114 7.109 5.114.791 0 1.597-.126 2.388-.392 3.927-1.318 6.042-5.569 4.724-9.496-10.349-30.824-6.769-62.101-3.964-77.16 14.595 7.583 29.936 13.722 45.258 17.994.659.184 1.337.275 2.015.275s1.355-.092 2.015-.275c15.35-4.279 30.719-10.433 45.337-18.035 2.818 15.011 6.422 46.244-3.971 77.201-1.318 3.926.797 8.177 4.724 9.496.792.266 1.597.392 2.388.392 3.134 0 6.057-1.98 7.109-5.114 12.798-38.122 6.627-75.696 3.503-89.687 13.285-8.016 25.681-17.202 36.537-27.201 12.847-11.833 22.622-23.865 28.912-35.335 1.133 12.959.208 27.754-5.935 41.279-.021.049-.049.111-.07.161-.786 1.834-.809 3.906-.063 5.757.746 1.85 2.199 3.328 4.037 4.105 10.93 4.616 19.416 9.414 26.708 15.1 1.37 1.068 2.994 1.586 4.607 1.586 2.231 0 4.44-.991 5.919-2.887 2.546-3.268 1.964-7.98-1.303-10.527zm-275.267-198.87c-3.275-34.499-1.093-67.59.004-80.275 15.465-2.876 62.303-10.689 114.81-10.689 7.113 0 14.468.145 21.861.43 4.147.182 7.624-3.065 7.783-7.204.16-4.138-3.065-7.623-7.205-7.782-7.585-.293-15.135-.441-22.439-.441-25.388 0-49.247 1.733-69.091 3.886-.311-3.649.25-8.658 4.128-13.26 4.947-5.871 16.936-13.201 45.948-14.78 28.499-1.552 67.525 2.768 116.221 12.847.986 6.189 1.464 13.503 1.695 19.094-10.917-1.663-24.985-3.524-41.15-5.017-4.127-.388-7.777 2.653-8.158 6.776-.382 4.124 2.653 7.776 6.777 8.157 27.317 2.525 48.875 6.198 58.44 7.981 1.098 12.675 3.282 45.736.002 80.276-17.127 4.071-75.93 15.228-109.964-13.617-2.799-2.371-6.9-2.371-9.699 0-34.038 28.847-92.844 17.688-109.963 13.618zm16.721 18.48c26.513 3.805 67.996 4.941 98.092-16.855 20.43 14.795 46.104 19.026 68.782 19.025 10.732 0 20.793-.948 29.31-2.17-3.919 27.882-15 53.35-31.69 72.511-18.309 21.019-41.891 32.594-66.402 32.594-24.547 0-48.154-11.605-66.475-32.677-16.653-19.156-27.704-44.588-31.617-72.428zm140.553 135.168c-5.796 6.263-19.528 17.712-42.461 17.712-22.964 0-36.642-11.388-42.441-17.671 4.039-5.913 6.927-12.975 8.229-21.563 10.96 4.249 22.477 6.457 34.212 6.457 11.738 0 23.259-2.209 34.223-6.462 1.309 8.571 4.2 15.622 8.238 21.527zm-162.059-40.036c1.987-14.517 20.424-18.349 36.936-18.806 1.571 2.034 3.193 4.015 4.867 5.94 8.771 10.088 18.638 18.302 29.243 24.467-1.362 22.429-15.02 32.299-40.636 41.79-20.65-19.519-32.263-39.844-30.41-53.391zm119.598 103.948c-27.131-7.871-54.193-21.917-76.339-39.456 8.651-3.574 16.839-7.797 23.698-13.415 8.146 8.473 25.232 21.668 52.642 21.668 27.449 0 44.545-13.232 52.676-21.704 6.864 5.617 15.056 9.839 23.711 13.413-22.156 17.556-49.237 31.617-76.388 39.494zm89.231-50.597c-25.615-9.49-39.285-19.355-40.674-41.753 10.57-6.146 20.409-14.327 29.157-24.37 1.703-1.955 3.352-3.967 4.949-6.034 16.512.456 34.948 4.288 36.935 18.805 1.852 13.538-9.744 33.845-30.367 53.352z"/><path d="m132.833 478.896c-3.814-1.601-8.215.191-9.819 4.01-2.983 7.101-2.798 19.409-2.73 21.804.114 4.068 3.448 7.286 7.493 7.286.07 0 .141-.001.211-.003 4.139-.114 7.402-3.563 7.29-7.701-.125-4.623.278-12.513 1.566-15.579 1.603-3.817-.192-8.213-4.011-9.817z"/><path d="m379.167 478.896c-3.819 1.604-5.614 6-4.011 9.818 1.288 3.065 1.691 10.95 1.566 15.575-.116 4.14 3.146 7.591 7.286 7.707.072.002.144.003.215.003 4.044 0 7.379-3.22 7.493-7.288.067-2.395.253-14.703-2.73-21.804-1.604-3.82-6.002-5.614-9.819-4.011z"/><path d="m230.668 289.847c7.076 5.94 16.072 9.211 25.332 9.211s18.256-3.271 25.332-9.211c3.173-2.664 3.585-7.393.922-10.565-2.662-3.172-7.395-3.582-10.566-.922-4.379 3.676-9.95 5.7-15.688 5.7s-11.309-2.024-15.688-5.7c-3.171-2.661-7.903-2.251-10.566.922-2.663 3.172-2.251 7.902.922 10.565z"/><path d="m252.396 253.977c.711-.597 1.913-1.307 3.604-1.307s2.892.711 3.602 1.306c1.405 1.179 3.116 1.756 4.818 1.756 2.14 0 4.265-.911 5.748-2.677 2.663-3.172 2.251-7.902-.922-10.565-3.701-3.107-8.405-4.818-13.246-4.818-4.84 0-9.544 1.711-13.246 4.817-3.173 2.662-3.587 7.392-.924 10.565 2.662 3.171 7.393 3.584 10.566.923z"/><path d="m167.339 144.347c-4.143 0-7.501 3.357-7.501 7.499 0 4.141 3.358 7.499 7.501 7.499s7.501-3.357 7.501-7.499c0-4.141-3.358-7.499-7.501-7.499z"/><path d="m202.339 159.345c4.143 0 7.501-3.357 7.501-7.499 0-4.141-3.358-7.499-7.501-7.499s-7.501 3.357-7.501 7.499 3.359 7.499 7.501 7.499z"/></g></svg>