<?xml version="1.0" encoding="iso-8859-1"?>
<!-- Generator: Adobe Illustrator 19.0.0, SVG Export Plug-In . SVG Version: 6.00 Build 0)  -->
<svg version="1.1" id="Capa_1" xmlns="http://www.w3.org/2000/svg" xmlns:xlink="http://www.w3.org/1999/xlink" x="0px" y="0px"
	 viewBox="0 0 497.44 497.44" style="enable-background:new 0 0 497.44 497.44;" xml:space="preserve">
<g>
	<g>
		<g>
			<path d="M479.816,390.912c-5.376-32.232-27.976-58.68-58.976-69.016L352,298.952V288.72h-16v13.992L280,407.72l-56-105v-14h-16
				v18l64,120v14h-96v16h96v24H153.064l6.384-51.08C169.76,422.856,176,411.408,176,398.832v-6.112h-16v6.112
				c0,7.984-4.44,15.168-11.576,18.736l-3.832,1.912l-7.656,61.24H81.44l9.112-54.688l-15.784-2.624L62.552,496.72H497.44
				L479.816,390.912z M288,480.72v-24h96v-16h-96v-14l59.88-112.272L384,326.48v72.344c0,12.576,6.24,24.024,16.552,30.816
				l6.384,51.08H288z M423.064,480.72l-7.656-61.24l-3.832-1.912C404.44,413.992,400,406.816,400,398.832v-67.016l15.776,5.256
				c25.368,8.464,43.856,30.104,48.256,56.472l14.52,87.176H423.064z"/>
			<path d="M144,176.72c0,20.528,15.6,37.296,35.536,39.552c4.08,14.04,11.616,26.912,22.24,37.536L232.968,285
				c7.552,7.552,17.6,11.72,28.288,11.72h37.488c10.688,0,20.736-4.168,28.288-11.72l31.192-31.192
				c10.624-10.624,18.152-23.496,22.24-37.536C400.4,214.016,416,197.248,416,176.72c0-9.04-3.128-17.296-8.208-24H424v-48h-25.144
				C392.496,57.496,358.024,17.984,312,5.232V0.72h-64v4.512c-46.016,12.752-80.488,52.264-86.856,99.488H136v48h16.208
				C147.128,159.424,144,167.68,144,176.72z M160,176.72c0-10.416,6.712-19.216,16-22.528v37.384c0,2.616,0.152,5.208,0.376,7.784
				C166.896,196.16,160,187.272,160,176.72z M368,191.576c0,19.24-7.496,37.312-21.088,50.92l-31.192,31.192
				c-4.536,4.536-10.56,7.032-16.976,7.032h-37.488c-6.416,0-12.448-2.496-16.976-7.032l-31.192-31.192
				c-13.592-13.6-21.088-31.68-21.088-50.912V152.72h176V191.576z M383.624,199.36c0.224-2.576,0.376-5.16,0.376-7.784v-37.384
				c9.288,3.312,16,12.112,16,22.528C400,187.272,393.104,196.16,383.624,199.36z M248,21.888V88.72h16v-72h32v72h16V21.888
				c37.072,12.024,64.752,44.312,70.768,82.832H177.232C183.256,66.192,210.928,33.912,248,21.888z M152,136.72v-16h256v16H152z"/>
			<rect x="328" y="72.72" width="16" height="16"/>
			<rect x="216" y="72.72" width="16" height="16"/>
			<path d="M73.448,408.72h45.112l4.136-20.624c2.648-0.928,5.24-2,7.76-3.192l17.496,11.656l31.896-31.896l-11.656-17.496
				c1.192-2.512,2.264-5.112,3.192-7.76L192,335.272V290.16l-20.624-4.136c-1.496-4.232-3.32-8.312-5.472-12.168l-13.984,7.784
				c2.344,4.2,4.216,8.752,5.568,13.504l1.344,4.688l17.168,3.44v18.888l-17.168,3.44l-1.344,4.688
				c-1.352,4.76-3.224,9.304-5.568,13.504l-2.376,4.264l9.696,14.544l-13.352,13.352l-14.544-9.696l-4.264,2.376
				c-4.2,2.344-8.752,4.216-13.504,5.568l-4.688,1.336l-3.44,17.184H86.56l-3.44-17.168l-4.688-1.336
				c-4.76-1.352-9.304-3.224-13.504-5.568l-4.264-2.376l-14.544,9.696l-17.992-17.984l-11.312,11.312l27.256,27.264l17.496-11.656
				c2.512,1.192,5.112,2.264,7.76,3.192L73.448,408.72z"/>
			<path d="M26.096,351.576l13.984-7.784c-2.344-4.2-4.216-8.752-5.568-13.504l-1.344-4.688L16,322.168V303.28l17.168-3.44
				l1.344-4.688c1.352-4.76,3.224-9.304,5.568-13.504l2.376-4.264L32.76,262.84l13.352-13.352l14.544,9.696l4.264-2.376
				c4.2-2.344,8.752-4.216,13.504-5.568l4.688-1.336l3.44-17.184h18.888l3.44,17.168l4.688,1.336
				c4.76,1.352,9.304,3.224,13.504,5.568l4.264,2.376l14.544-9.696l17.992,17.984l11.312-11.312l-27.256-27.264l-17.496,11.656
				c-2.512-1.192-5.112-2.264-7.76-3.192l-4.12-20.624H73.44l-4.136,20.624c-2.648,0.928-5.24,2-7.76,3.192L44.048,228.88
				l-31.896,31.896l11.656,17.496c-1.192,2.512-2.264,5.112-3.192,7.76L0,290.168v45.112l20.624,4.136
				C22.12,343.64,23.944,347.72,26.096,351.576z"/>
			<path d="M96,272.72c-22.056,0-40,17.944-40,40c0,22.056,17.944,40,40,40c22.056,0,40-17.944,40-40
				C136,290.664,118.056,272.72,96,272.72z M96,336.72c-13.232,0-24-10.768-24-24s10.768-24,24-24s24,10.768,24,24
				S109.232,336.72,96,336.72z"/>
		</g>
	</g>
</g>
<g>
</g>
<g>
</g>
<g>
</g>
<g>
</g>
<g>
</g>
<g>
</g>
<g>
</g>
<g>
</g>
<g>
</g>
<g>
</g>
<g>
</g>
<g>
</g>
<g>
</g>
<g>
</g>
<g>
</g>
</svg>
