<?xml version="1.0"?>
<svg xmlns="http://www.w3.org/2000/svg" width="512" height="512" viewBox="0 0 512 512"><g><path d="M503.69,494.09l-18.73-73.63c-.02-.08-.04-.15-.06-.23a87.82,87.82,0,0,0-66.47-61.96L392,352.7V344a8,8,0,0,0-8-8H336a7.989,7.989,0,0,0-6.61,3.5l-9.41-1.98V325.31A80.083,80.083,0,0,0,360,256.03h4.01a28.041,28.041,0,0,0,28-27.99v-24A27.868,27.868,0,0,0,383.55,184H400a8,8,0,0,0,0-16H384V120C384,58.24,326.58,8,256,8S128,58.24,128,120v48H112a8,8,0,0,0,0,16h16.42a27.933,27.933,0,0,0-8.41,19.96v24A28.024,28.024,0,0,0,148,255.97h4a80.028,80.028,0,0,0,39.98,69.25V337.5l-9.39,1.97A7.99,7.99,0,0,0,176,336H128a8,8,0,0,0-8,8v8.63l-26.49,5.56a87.8,87.8,0,0,0-66.49,61.92c-.02.07-.04.15-.06.22L8.19,493.96a7.994,7.994,0,0,0,7.75,9.98l480,.12a7.976,7.976,0,0,0,3.52-.81,8.1,8.1,0,0,0,2.8-2.28A8.008,8.008,0,0,0,503.69,494.09ZM42.43,424.4A72.7,72.7,0,0,1,49.44,408H72v40H36.42ZM120,487.97l-8.06-.01.01-32a8,8,0,1,0-16,0l-.01,32-69.71-.02L32.34,464H80a8,8,0,0,0,8-8V400a8,8,0,0,0-8-8H62.12a71.9,71.9,0,0,1,34.69-18.15L120,368.98ZM376.01,204.03v24a12.016,12.016,0,0,1-12,12H360l.01-32,.01-16h4A12,12,0,0,1,376.01,204.03ZM358.54,81.41l-8.98,14.22H324.21L313.79,80.64l20.26-29.42A97.665,97.665,0,0,1,358.54,81.41ZM234.27,25.82l19,28.51L221.19,80H154.2C169,52.42,198.62,31.85,234.27,25.82ZM144,120a83.065,83.065,0,0,1,3.54-24H224a8.028,8.028,0,0,0,5-1.75l40-32a8.011,8.011,0,0,0,1.66-10.69l-18.34-27.5c1.22-.04,2.45-.06,3.68-.06a124.4,124.4,0,0,1,65.05,17.9L297.47,76.12a8.01,8.01,0,0,0,.02,9.11l15.97,22.97a8.007,8.007,0,0,0,6.57,3.43h33.94a8,8,0,0,0,6.76-3.73l4.87-7.7A82.824,82.824,0,0,1,368,120v48H318.94l-7.02-49.13A8,8,0,0,0,304,112H280a8.008,8.008,0,0,0-5.66,2.34l-24,24A8.008,8.008,0,0,0,248,144v24H144Zm158.78,48H264V147.31L283.31,128h13.75ZM152.01,207.97l-.01,32h-4a12.007,12.007,0,0,1-11.99-12v-24a12.022,12.022,0,0,1,12-12h4.01ZM168,255.98l.02-71.98h176v.02l-.02,72a64.105,64.105,0,0,1-35.73,57.42l-.12.06A63.686,63.686,0,0,1,280,320.01h-.02l-48-.02A64.064,64.064,0,0,1,168,255.98Zm135.99,88.36C303.88,353.57,301.61,376,256,376c-11.87,0-48,0-48-33,0-.15-.01-.29-.02-.44V332.3a79.365,79.365,0,0,0,24,3.69l48,.02H280a80.093,80.093,0,0,0,23.98-3.66v11.66C303.98,344.12,303.99,344.23,303.99,344.34ZM184,355.52l9-1.89C196.42,371.2,210.16,392,256,392c45.81,0,59.56-20.78,63-38.34l9,1.9V368a32.036,32.036,0,0,1-32,32H216a32.036,32.036,0,0,1-32-32Zm24,132.47-24-.01V456h24ZM328,488H304V456h24Zm48,0H344V448a8,8,0,0,0-8-8H296a8,8,0,0,0-8,8v40H255.94L224,487.99V448a8,8,0,0,0-8-8H176a8,8,0,0,0-8,8v39.98l-32-.01V352h32v16a48.051,48.051,0,0,0,48,48h80a48.051,48.051,0,0,0,48-48V352h32Zm93.49-63.48L475.46,448H440.12V408h22.3A72.5,72.5,0,0,1,469.49,424.52Zm-53.55,63.52.01-32a8,8,0,1,0-16,0l-.01,32-7.94-.01V369.05l23.13,4.88A71.946,71.946,0,0,1,449.7,392H432.12a8,8,0,0,0-8,8v56a8,8,0,0,0,8,8h47.41l6.12,24.06Z"/><path d="M208.018,191.988a16,16,0,1,0,16,16A16,16,0,0,0,208.018,191.988Z"/><path d="M304.01,224.012a16,16,0,1,0-16-16A16,16,0,0,0,304.01,224.012Z"/><path d="M239.994,288l32,.008h0a8,8,0,0,0,0-16L240,272h0a8,8,0,0,0,0,16Z"/></g></svg>
